REM DIRINDEX 1\2,1\3,1\4,1\6,1\5\7,1\5\8
REM DIRNAME folder01,folder02,folder03,folder04,folder05,folder06,folder07,folder08
TITLE ""
FILE "DB4500_5th_4B_40.mp3" MP3
  TRACK 01 AUDIO
    TITLE "0:"
    INDEX 01 00:00:00
  TRACK 02 AUDIO
    TITLE "2:cjc114_3073"
    INDEX 01 00:00:01
  TRACK 03 AUDIO
    TITLE "0:"
    INDEX 01 00:03:14
  TRACK 04 AUDIO
    TITLE "3:cjc114_3074"
    INDEX 01 00:03:47
  TRACK 05 AUDIO
    TITLE "0:"
    INDEX 01 00:04:62
  TRACK 06 AUDIO
    TITLE "4:cjc114_3075"
    INDEX 01 00:05:16
  TRACK 07 AUDIO
    TITLE "0:"
    INDEX 01 00:08:09
  TRACK 08 AUDIO
    TITLE "2:cjc114_3076"
    INDEX 01 00:08:64
  TRACK 09 AUDIO
    TITLE "0:"
    INDEX 01 00:09:67
  TRACK 10 AUDIO
    TITLE "3:cjc114_3077"
    INDEX 01 00:10:19
  TRACK 11 AUDIO
    TITLE "0:"
    INDEX 01 00:11:44
  TRACK 12 AUDIO
    TITLE "4:cjc114_3078"
    INDEX 01 00:11:74
  TRACK 13 AUDIO
    TITLE "0:"
    INDEX 01 00:15:17
  TRACK 14 AUDIO
    TITLE "2:cjc114_3079"
    INDEX 01 00:15:70
  TRACK 15 AUDIO
    TITLE "0:"
    INDEX 01 00:17:06
  TRACK 16 AUDIO
    TITLE "3:cjc114_3080"
    INDEX 01 00:17:35
  TRACK 17 AUDIO
    TITLE "0:"
    INDEX 01 00:19:11
  TRACK 18 AUDIO
    TITLE "4:cjc114_3081"
    INDEX 01 00:19:38
  TRACK 19 AUDIO
    TITLE "0:"
    INDEX 01 00:22:50
  TRACK 20 AUDIO
    TITLE "2:cjc114_3082"
    INDEX 01 00:23:28
  TRACK 21 AUDIO
    TITLE "0:"
    INDEX 01 00:24:63
  TRACK 22 AUDIO
    TITLE "3:cjc114_3083"
    INDEX 01 00:25:19
  TRACK 23 AUDIO
    TITLE "0:"
    INDEX 01 00:26:36
  TRACK 24 AUDIO
    TITLE "4:cjc114_3084"
    INDEX 01 00:26:66
  TRACK 25 AUDIO
    TITLE "0:"
    INDEX 01 00:30:71
  TRACK 26 AUDIO
    TITLE "2:cjc114_3085"
    INDEX 01 00:31:51
  TRACK 27 AUDIO
    TITLE "0:"
    INDEX 01 00:32:58
  TRACK 28 AUDIO
    TITLE "3:cjc114_3086"
    INDEX 01 00:33:11
  TRACK 29 AUDIO
    TITLE "0:"
    INDEX 01 00:34:28
  TRACK 30 AUDIO
    TITLE "4:cjc114_3087"
    INDEX 01 00:34:55
  TRACK 31 AUDIO
    TITLE "0:"
    INDEX 01 00:38:26
  TRACK 32 AUDIO
    TITLE "2:cjc114_3088"
    INDEX 01 00:39:05
  TRACK 33 AUDIO
    TITLE "0:"
    INDEX 01 00:40:07
  TRACK 34 AUDIO
    TITLE "3:cjc114_3089"
    INDEX 01 00:40:36
  TRACK 35 AUDIO
    TITLE "0:"
    INDEX 01 00:41:44
  TRACK 36 AUDIO
    TITLE "4:cjc114_3090"
    INDEX 01 00:41:69
  TRACK 37 AUDIO
    TITLE "0:"
    INDEX 01 00:44:54
  TRACK 38 AUDIO
    TITLE "4:cjc114_3091"
    INDEX 01 00:45:32
  TRACK 39 AUDIO
    TITLE "0:"
    INDEX 01 00:48:65
  TRACK 40 AUDIO
    TITLE "2:cjc114_3092"
    INDEX 01 00:49:45
  TRACK 41 AUDIO
    TITLE "0:"
    INDEX 01 00:50:64
  TRACK 42 AUDIO
    TITLE "3:cjc114_3093"
    INDEX 01 00:51:15
  TRACK 43 AUDIO
    TITLE "0:"
    INDEX 01 00:52:41
  TRACK 44 AUDIO
    TITLE "4:cjc114_3094"
    INDEX 01 00:52:71
  TRACK 45 AUDIO
    TITLE "0:"
    INDEX 01 00:56:24
  TRACK 46 AUDIO
    TITLE "2:cjc114_3095"
    INDEX 01 00:57:01
  TRACK 47 AUDIO
    TITLE "0:"
    INDEX 01 00:58:13
  TRACK 48 AUDIO
    TITLE "3:cjc114_3096"
    INDEX 01 00:58:42
  TRACK 49 AUDIO
    TITLE "0:"
    INDEX 01 01:00:02
  TRACK 50 AUDIO
    TITLE "4:cjc114_3097"
    INDEX 01 01:00:29
  TRACK 51 AUDIO
    TITLE "0:"
    INDEX 01 01:03:12
  TRACK 52 AUDIO
    TITLE "2:cjc114_3098"
    INDEX 01 01:03:65
  TRACK 53 AUDIO
    TITLE "0:"
    INDEX 01 01:04:64
  TRACK 54 AUDIO
    TITLE "3:cjc114_3099"
    INDEX 01 01:05:17
  TRACK 55 AUDIO
    TITLE "0:"
    INDEX 01 01:06:18
  TRACK 56 AUDIO
    TITLE "4:cjc114_3100"
    INDEX 01 01:06:47
  TRACK 57 AUDIO
    TITLE "0:"
    INDEX 01 01:11:15
  TRACK 58 AUDIO
    TITLE "2:cjc114_3101"
    INDEX 01 01:11:66
  TRACK 59 AUDIO
    TITLE "0:"
    INDEX 01 01:12:60
  TRACK 60 AUDIO
    TITLE "3:cjc114_3102"
    INDEX 01 01:13:16
  TRACK 61 AUDIO
    TITLE "0:"
    INDEX 01 01:14:31
  TRACK 62 AUDIO
    TITLE "4:cjc114_3103"
    INDEX 01 01:14:59
  TRACK 63 AUDIO
    TITLE "0:"
    INDEX 01 01:17:28
  TRACK 64 AUDIO
    TITLE "2:cjc114_3104"
    INDEX 01 01:18:07
  TRACK 65 AUDIO
    TITLE "0:"
    INDEX 01 01:18:68
  TRACK 66 AUDIO
    TITLE "3:cjc114_3105"
    INDEX 01 01:19:38
  TRACK 67 AUDIO
    TITLE "0:"
    INDEX 01 01:20:55
  TRACK 68 AUDIO
    TITLE "4:cjc114_3106"
    INDEX 01 01:21:10
  TRACK 69 AUDIO
    TITLE "0:"
    INDEX 01 01:24:28
